:SAMPLES-PER-SECOND 30
:FULLY-SPECIFIED
:DEGREES
388
root  -3.17769 41.0112 0.131836 3.17114 -84.695 -0.0483398
RightUpLeg  1.25199 -1.13417 -0.698455
RightLeg  -5.85125 -24.4069 3.37824
RightFoot  1.89075 -0.21068 1.83865
RightToes  -3.13588e-008 1.75238e-005 3.56266e-009
Spine  5.17123 0.413031 0.866102
Spine1  -9.18872 0.710777 -2.88394
HEad  -9.36749 -5.51957 4.77919
LeftShoulder1  1.14585 -1.40198 -16.6428
LeftArm  -40.7248 -27.5463 -34.7739
LeftForeArm  56.652 -76.3281 -43.3854
LeftHand  -0.503211 -3.58138 6.77818
RightShoulder  0.775778 0.355584 13.1841
RightArm  -67.1433 28.3519 14.7414
RightForeArm  46.3714 77.0477 53.1051
RightHand  -0.519635 8.89832 -4.59528
LeftUpLeg  -0.331841 0.900785 3.60773
LeftLeg  -4.55788 10.3863 -0.882712
LeftFoot  2.76162 0.458537 -3.84234
LeftToes  4.76812e-008 1.47286e-008 1.3089e-009
389
root  -3.22632 41.013 0.116748 3.55283 -84.5809 0.0688782
RightUpLeg  0.93064 -1.06943 -0.683503
RightLeg  -6.15959 -24.5792 3.54686
RightFoot  1.97267 -0.213314 1.87925
RightToes  -3.13588e-008 1.75238e-005 3.56266e-009
Spine  6.08487 0.258042 1.13883
Spine1  -11.1268 0.562177 -3.45425
HEad  -9.39586 -5.75323 5.01173
LeftShoulder1  0.953628 -0.973126 -14.3766
LeftArm  -49.5376 -36.4442 -28.0422
LeftForeArm  65.9203 -78.1071 -52.3608
LeftHand  -0.604022 -4.13966 7.58799
RightShoulder  0.549143 -0.519702 11.2926
RightArm  -72.9666 30.1178 11.2158
RightForeArm  55.5731 78.2629 62.2509
RightHand  -0.56728 9.43155 -4.82745
LeftUpLeg  -0.775321 0.852529 3.63094
LeftLeg  -4.65507 10.3429 -0.915387
LeftFoot  2.82258 0.463407 -3.86782
LeftToes  4.76812e-008 1.47286e-008 1.3089e-009
390
root  -3.28661 41.0136 0.128652 3.57791 -84.9753 0.516571
RightUpLeg  0.538372 -1.05052 -0.755984
RightLeg  -6.28983 -24.2268 3.6074
RightFoot  2.00551 -0.214361 1.89535
RightToes  -3.13588e-008 1.75238e-005 3.56266e-009
Spine  7.03987 0.303359 1.76369
Spine1  -12.912 0.631625 -4.3536
HEad  -9.68958 -5.57917 5.52203
LeftShoulder1  0.755638 -0.27422 -12.9788
LeftArm  -59.5748 -43.584 -20.9403
LeftForeArm  90.1017 -80.2296 -72.3672
LeftHand  -0.883362 -5.13419 10.0402
RightShoulder  0.337553 -1.49998 9.67294
RightArm  -79.2625 31.9353 8.06028
RightForeArm  76.1466 79.4541 83.7971
RightHand  -0.452261 9.18553 -3.99265
LeftUpLeg  -1.06441 0.797383 3.58025
LeftLeg  -4.80088 10.8234 -1.01089
LeftFoot  2.82627 0.448972 -3.75089
LeftToes  4.76812e-008 1.47286e-008 1.3089e-009
391
root  -3.37187 41.0136 0.157089 2.44803 -85.3665 2.2626
RightUpLeg  -0.0256208 -1.03746 -0.928246
RightLeg  -6.27568 -23.8481 3.52095
RightFoot  1.99846 -0.221347 2.00375
RightToes  -3.13588e-008 1.75238e-005 3.56266e-009
Spine  7.54978 0.356153 2.07808
Spine1  -14.5219 0.652507 -4.71997
HEad  -9.42408 -5.43634 5.32714
LeftShoulder1  0.650621 0.161199 -12.36
LeftArm  -68.1862 -47.1782 -14.8947
LeftForeArm  135.148 -79.9945 -113.861
LeftHand  -1.01201 -5.70771 10.9088
RightShoulder  0.226034 -2.11674 9.09255
RightArm  -84.4073 33.8506 5.1524
RightForeArm  109.69 78.2754 117.111
RightHand  -0.523448 8.98989 -4.4808
LeftUpLeg  -1.41218 0.630636 3.40279
LeftLeg  -5.04002 11.398 -1.13692
LeftFoot  2.8193 0.442704 -3.70183
LeftToes  4.76812e-008 1.47286e-008 1.3089e-009
392
root  -3.48734 41.0132 0.199538 2.8486 -85.9603 2.36206
RightUpLeg  -0.313117 -0.903227 -0.931053
RightLeg  -6.56012 -23.4061 3.5209
RightFoot  2.09216 -0.218482 1.95953
RightToes  -3.13588e-008 1.75238e-005 3.56266e-009
Spine  7.33661 0.596701 2.72391
Spine1  -15.24 0.887687 -5.26189
HEad  -8.99033 -5.53079 4.65162
LeftShoulder1  0.550132 0.615861 -11.91
LeftArm  -73.5664 -48.7587 -11.8051
LeftForeArm  166.012 -74.8547 -144.05
LeftHand  -1.00583 -6.54614 10.0914
RightShoulder  0.187973 -2.33488 8.87613
RightArm  -88.3617 35.2311 2.91149
RightForeArm  131.369 73.6663 140.661
RightHand  -0.901926 10.8297 -6.8011
LeftUpLeg  -1.58006 0.680899 3.41083
LeftLeg  -5.23005 11.9328 -1.33477
LeftFoot  2.68552 0.425045 -3.58758
LeftToes  4.76812e-008 1.47286e-008 1.3089e-009
